<svg width="300" height="300" viewBox="0 0 300 300" fill="none" xmlns="http://www.w3.org/2000/svg">
<path d="M50 262.5V237.5C50 224.239 55.2678 211.521 64.6447 202.145C74.0215 192.768 86.7392 187.5 100 187.5H106.25M75 87.5C75 100.761 80.2678 113.479 89.6447 122.855C99.0215 132.232 111.739 137.5 125 137.5C138.261 137.5 150.979 132.232 160.355 122.855C169.732 113.479 175 100.761 175 87.5C175 74.2392 169.732 61.5215 160.355 52.1447C150.979 42.7678 138.261 37.5 125 37.5C111.739 37.5 99.0215 42.7678 89.6447 52.1447C80.2678 61.5215 75 74.2392 75 87.5ZM197.5 260.212L170.35 274.437C169.544 274.857 168.638 275.044 167.732 274.978C166.826 274.912 165.956 274.596 165.22 274.064C164.483 273.532 163.909 272.807 163.561 271.968C163.213 271.128 163.106 270.209 163.25 269.312L168.438 239.175L146.475 217.837C145.819 217.204 145.355 216.398 145.136 215.514C144.916 214.629 144.949 213.7 145.232 212.833C145.515 211.966 146.036 211.196 146.735 210.612C147.435 210.027 148.284 209.65 149.188 209.525L179.538 205.125L193.112 177.712C193.518 176.896 194.144 176.209 194.919 175.729C195.694 175.249 196.588 174.994 197.5 174.994C198.412 174.994 199.306 175.249 200.081 175.729C200.856 176.209 201.481 176.896 201.887 177.712L215.462 205.125L245.813 209.525C246.713 209.655 247.559 210.033 248.256 210.619C248.952 211.204 249.471 211.973 249.753 212.838C250.035 213.703 250.07 214.629 249.853 215.513C249.636 216.397 249.176 217.202 248.525 217.837L226.562 239.175L231.737 269.3C231.893 270.198 231.793 271.122 231.45 271.967C231.106 272.811 230.533 273.543 229.795 274.078C229.057 274.613 228.183 274.93 227.274 274.994C226.365 275.057 225.455 274.865 224.65 274.437L197.5 260.212Z" stroke="white" stroke-width="25" stroke-linecap="round" stroke-linejoin="round"/>
</svg>
