<svg width="300" height="300" viewBox="0 0 300 300" fill="none" xmlns="http://www.w3.org/2000/svg">
<path d="M106.25 168.75L87.5 150L106.25 131.25M193.75 131.25L212.5 150L193.75 168.75" stroke="white" stroke-width="25" stroke-linecap="round" stroke-linejoin="round"/>
<path d="M162.5 118.75L137.5 187.5M37.5 150C37.5 164.774 40.4099 179.403 46.0636 193.052C51.7172 206.701 60.0039 219.103 70.4505 229.55C80.8971 239.996 93.299 248.283 106.948 253.936C120.597 259.59 135.226 262.5 150 262.5C164.774 262.5 179.403 259.59 193.052 253.936C206.701 248.283 219.103 239.996 229.55 229.55C239.996 219.103 248.283 206.701 253.936 193.052C259.59 179.403 262.5 164.774 262.5 150C262.5 135.226 259.59 120.597 253.936 106.948C248.283 93.299 239.996 80.8971 229.55 70.4505C219.103 60.0039 206.701 51.7172 193.052 46.0636C179.403 40.4099 164.774 37.5 150 37.5C135.226 37.5 120.597 40.4099 106.948 46.0636C93.299 51.7172 80.8971 60.0039 70.4505 70.4505C60.0039 80.8971 51.7172 93.299 46.0636 106.948C40.4099 120.597 37.5 135.226 37.5 150Z" stroke="white" stroke-width="25" stroke-linecap="round" stroke-linejoin="round"/>
</svg>
