<svg width="300" height="300" viewBox="0 0 300 300" fill="none" xmlns="http://www.w3.org/2000/svg">
<path d="M125 200H200M250 75V225C250 231.63 247.366 237.989 242.678 242.678C237.989 247.366 231.63 250 225 250H100C93.3696 250 87.0107 247.366 82.3223 242.678C77.6339 237.989 75 231.63 75 225V75C75 68.3696 77.6339 62.0107 82.3223 57.3223C87.0107 52.6339 93.3696 50 100 50H225C231.63 50 237.989 52.6339 242.678 57.3223C247.366 62.0107 250 68.3696 250 75Z" stroke="white" stroke-width="25" stroke-linecap="round" stroke-linejoin="round"/>
<path d="M50 100H87.5M50 150H87.5M50 200H87.5M137.5 137.5C137.5 144.13 140.134 150.489 144.822 155.178C149.511 159.866 155.87 162.5 162.5 162.5C169.13 162.5 175.489 159.866 180.178 155.178C184.866 150.489 187.5 144.13 187.5 137.5C187.5 130.87 184.866 124.511 180.178 119.822C175.489 115.134 169.13 112.5 162.5 112.5C155.87 112.5 149.511 115.134 144.822 119.822C140.134 124.511 137.5 130.87 137.5 137.5Z" stroke="white" stroke-width="25" stroke-linecap="round" stroke-linejoin="round"/>
</svg>
