<svg width="300" height="300" viewBox="0 0 300 300" fill="none" xmlns="http://www.w3.org/2000/svg">
<path d="M150 187.5C150 197.446 153.951 206.984 160.983 214.017C168.016 221.049 177.554 225 187.5 225C197.446 225 206.984 221.049 214.017 214.017C221.049 206.984 225 197.446 225 187.5C225 177.554 221.049 168.016 214.017 160.983C206.984 153.951 197.446 150 187.5 150C177.554 150 168.016 153.951 160.983 160.983C153.951 168.016 150 177.554 150 187.5Z" stroke="white" stroke-width="25" stroke-linecap="round" stroke-linejoin="round"/>
<path d="M162.5 218.75V275L187.5 256.25L212.5 275V218.75" stroke="white" stroke-width="25" stroke-linecap="round" stroke-linejoin="round"/>
<path d="M125 237.5H62.5C55.8696 237.5 49.5107 234.866 44.8223 230.178C40.1339 225.489 37.5 219.13 37.5 212.5V87.5C37.5 73.75 48.75 62.5 62.5 62.5H237.5C244.13 62.5 250.489 65.1339 255.178 69.8223C259.866 74.5107 262.5 80.8696 262.5 87.5V212.5C262.496 216.884 261.338 221.19 259.144 224.985C256.95 228.781 253.797 231.933 250 234.125M75 112.5H225M75 150H112.5M75 187.5H100" stroke="white" stroke-width="25" stroke-linecap="round" stroke-linejoin="round"/>
</svg>
