<svg width="300" height="300" viewBox="0 0 300 300" fill="none" xmlns="http://www.w3.org/2000/svg">
<path d="M206.75 87.5C196.687 57.9375 175.05 37.5 150 37.5C115.325 37.5 87.2125 70.4 87.2125 118.7C87.2125 143.15 106.987 177.787 118.612 193.7" stroke="white" stroke-width="25" stroke-linecap="round" stroke-linejoin="round"/>
<path d="M58.8875 149.738C38.1875 173.2 31.2125 202.05 43.75 223.625C61.0875 253.5 107.975 259.013 150.012 234.875C171.3 222.638 185.95 192.85 193.962 174.9" stroke="white" stroke-width="25" stroke-linecap="round" stroke-linejoin="round"/>
<path d="M187.675 249.875C219.062 249.875 244.212 244.4 256.262 223.625C273.6 193.75 253.575 149.963 211.525 125.825C190.25 113.588 157.063 110.388 137.438 112.45" stroke="white" stroke-width="25" stroke-linecap="round" stroke-linejoin="round"/>
<path d="M131.163 123.275C137.163 126.725 144.85 124.675 148.312 118.7C149.965 115.829 150.41 112.419 149.55 109.219C148.69 106.02 146.595 103.293 143.725 101.638C140.841 99.9759 137.416 99.5244 134.199 100.382C130.983 101.239 128.237 103.336 126.562 106.213C124.911 109.085 124.468 112.497 125.33 115.696C126.193 118.896 128.291 121.622 131.163 123.275ZM106.25 193.75C106.25 197.065 107.567 200.245 109.911 202.589C112.255 204.933 115.435 206.25 118.75 206.25C122.065 206.25 125.245 204.933 127.589 202.589C129.933 200.245 131.25 197.065 131.25 193.75C131.25 190.435 129.933 187.255 127.589 184.911C125.245 182.567 122.065 181.25 118.75 181.25C115.435 181.25 112.255 182.567 109.911 184.911C107.567 187.255 106.25 190.435 106.25 193.75ZM181.25 175C181.25 178.315 182.567 181.495 184.911 183.839C187.255 186.183 190.435 187.5 193.75 187.5C197.065 187.5 200.245 186.183 202.589 183.839C204.933 181.495 206.25 178.315 206.25 175C206.25 171.685 204.933 168.505 202.589 166.161C200.245 163.817 197.065 162.5 193.75 162.5C190.435 162.5 187.255 163.817 184.911 166.161C182.567 168.505 181.25 171.685 181.25 175Z" stroke="white" stroke-width="25" stroke-linecap="round" stroke-linejoin="round"/>
</svg>
