<svg width="31" height="31" viewBox="0 0 31 31" fill="none" xmlns="http://www.w3.org/2000/svg">
<path d="M4.25 15.5H5.5M15.5 4.25V5.5M25.5 15.5H26.75M15.5 25.5V26.75M7.5 7.5L8.375 8.375M23.5 7.5L22.625 8.375M22.625 22.625L23.5 23.5M8.375 22.625L7.5 23.5M10.5 15.5C10.5 16.8261 11.0268 18.0979 11.9645 19.0355C12.9021 19.9732 14.1739 20.5 15.5 20.5C16.8261 20.5 18.0979 19.9732 19.0355 19.0355C19.9732 18.0979 20.5 16.8261 20.5 15.5C20.5 14.1739 19.9732 12.9021 19.0355 11.9645C18.0979 11.0268 16.8261 10.5 15.5 10.5C14.1739 10.5 12.9021 11.0268 11.9645 11.9645C11.0268 12.9021 10.5 14.1739 10.5 15.5Z" stroke="white" stroke-width="2.5" stroke-linecap="round" stroke-linejoin="round"/>
</svg>
