<svg width="300" height="300" viewBox="0 0 300 300" fill="none" xmlns="http://www.w3.org/2000/svg">
<path d="M137.5 150C137.5 153.315 138.817 156.495 141.161 158.839C143.505 161.183 146.685 162.5 150 162.5C153.315 162.5 156.495 161.183 158.839 158.839C161.183 156.495 162.5 153.315 162.5 150C162.5 146.685 161.183 143.505 158.839 141.161C156.495 138.817 153.315 137.5 150 137.5C146.685 137.5 143.505 138.817 141.161 141.161C138.817 143.505 137.5 146.685 137.5 150Z" stroke="white" stroke-width="25" stroke-linecap="round" stroke-linejoin="round"/>
<path d="M211.55 139.15C209.404 126.976 203.697 115.712 195.149 106.782C186.601 97.8524 175.598 91.6577 163.53 88.9815C151.461 86.3054 138.87 87.268 127.349 91.7477C115.828 96.2273 105.894 104.023 98.8034 114.148C91.7127 124.274 87.7839 136.275 87.5137 148.633C87.2435 160.992 90.6442 173.153 97.2855 183.579C103.927 194.004 113.511 202.226 124.825 207.205C136.14 212.184 148.676 213.696 160.85 211.55" stroke="white" stroke-width="25" stroke-linecap="round" stroke-linejoin="round"/>
<path d="M37.5 150C37.5 172.25 44.098 194.001 56.4597 212.502C68.8213 231.002 86.3914 245.422 106.948 253.936C127.505 262.451 150.125 264.679 171.948 260.338C193.771 255.998 213.816 245.283 229.55 229.55C245.283 213.816 255.998 193.771 260.338 171.948C264.679 150.125 262.451 127.505 253.936 106.948C245.422 86.3914 231.002 68.8213 212.502 56.4597C194.001 44.098 172.25 37.5 150 37.5" stroke="white" stroke-width="25" stroke-linecap="round" stroke-linejoin="round"/>
</svg>
