<svg width="671" height="244" viewBox="0 0 671 244" fill="none" xmlns="http://www.w3.org/2000/svg">
<g clip-path="url(#clip0_38_35)">
<path d="M346.424 80.8184L378.348 78.798C379.076 83.9085 380.411 87.7117 382.596 90.4453C386.116 94.7239 390.972 96.8632 397.405 96.8632C402.139 96.8632 405.902 95.7936 408.451 93.5354C410.878 91.7527 412.335 88.9003 412.335 85.929C412.335 83.0766 411 80.343 408.693 78.5603C406.266 76.421 400.561 74.2816 391.578 72.38C376.891 69.1711 366.331 64.8925 360.141 59.4253C353.95 54.3148 350.43 46.8272 350.673 38.8642C350.673 33.3971 352.372 27.93 355.528 23.4136C359.169 18.3031 364.146 14.2622 370.094 12.004C376.527 9.27044 385.509 7.84424 396.798 7.84424C410.635 7.84424 421.196 10.3401 428.479 15.4507C435.762 20.4424 440.131 28.5242 441.467 39.5773L409.907 41.3601C409.058 36.606 407.358 33.1594 404.566 30.9012C401.775 28.6431 398.133 27.5734 393.399 27.5734C389.515 27.5734 386.602 28.4054 384.66 29.9504C382.839 31.3766 381.625 33.5159 381.747 35.8929C381.747 37.6757 382.718 39.3396 384.174 40.4093C385.752 41.8355 389.515 43.1428 395.463 44.3313C410.15 47.4214 420.589 50.5116 427.022 53.7205C433.455 56.9295 438.068 60.8515 440.86 65.4867C443.773 70.2407 445.229 75.7079 445.108 81.2938C445.108 87.9495 443.166 94.6051 439.282 100.191C435.276 106.015 429.692 110.531 423.138 113.265C416.219 116.236 407.48 117.781 397.041 117.781C378.591 117.781 365.845 114.334 358.684 107.322C351.522 100.31 347.274 91.515 346.424 80.8184ZM7.64707 115.998V9.74585H63.6042C73.9217 9.74585 81.9329 10.5778 87.3951 12.3606C92.7359 14.0245 97.4698 17.4711 100.626 22.1063C104.146 27.2169 105.845 33.1594 105.724 39.3396C106.088 49.7984 100.626 59.7819 91.2793 65.0113C87.6378 67.0318 83.6322 68.458 79.5052 69.1711C82.5398 70.003 85.5743 71.4292 88.2447 73.0931C90.3082 74.757 92.0076 76.6587 93.5856 78.6791C95.4063 80.6996 96.9843 82.9577 98.3195 85.3347L114.585 116.117H76.4707L58.5061 83.4331C56.1999 79.2734 54.2578 76.5398 52.437 75.2324C50.0094 73.5685 47.0962 72.7366 44.1831 72.7366H41.2699V115.879H7.64707V115.998ZM41.2699 52.7697H55.4716C58.5061 52.532 61.4193 52.0566 64.3325 51.3435C66.5174 50.987 68.4595 49.7985 69.7947 48.0157C73.072 43.7371 72.5865 37.6757 68.5809 33.9913C66.396 32.2086 62.1476 31.2578 56.0785 31.2578H41.2699V52.7697ZM0 207.038L31.9235 205.017C32.6518 210.128 33.987 213.931 36.1718 216.664C39.5705 220.943 44.5472 223.201 50.9805 223.201C55.7144 223.201 59.4772 222.132 62.0262 219.873C64.4539 217.972 65.9104 215.238 65.9104 212.267C65.9104 209.415 64.5752 206.681 62.269 204.898C59.8413 202.759 54.1364 200.62 45.0327 198.718C30.3455 195.509 19.7853 191.23 13.5948 185.763C7.4043 180.653 3.88423 173.165 4.12699 165.202C4.12699 159.735 5.82634 154.268 8.98227 149.752C12.6237 144.641 17.6004 140.6 23.5481 138.342C29.9814 135.608 38.9636 134.182 50.2522 134.182C64.0897 134.182 74.65 136.678 81.9329 141.789C89.2158 146.899 93.4642 154.862 94.7994 165.915L63.24 167.698C62.3904 162.944 60.691 159.497 57.8992 157.239C55.2288 154.981 51.466 153.911 46.7321 154.03C42.8479 154.03 39.9347 154.862 37.9926 156.526C36.0505 157.952 34.958 160.092 35.0794 162.469C35.0794 164.251 36.0505 165.915 37.5071 166.985C39.085 168.411 42.8479 169.719 48.7956 170.907C63.4828 173.997 73.9217 177.087 80.3549 180.296C86.7882 183.505 91.4007 187.427 94.1925 192.062C97.1056 196.816 98.5622 202.284 98.5622 207.751C98.5622 214.406 96.4987 220.943 92.7359 226.529C88.7303 232.353 83.1467 236.869 76.5921 239.603C69.6733 242.574 60.9338 244.119 50.4949 244.119C32.0449 244.119 19.2997 240.672 12.1382 233.66C4.97666 226.529 0.971056 217.734 0 207.038Z" fill="white"/>
<path d="M161.438 198.718L190.812 207.394C189.234 214.644 185.957 221.537 181.466 227.599C177.339 232.947 171.877 237.107 165.686 239.84C159.374 242.574 151.363 244 141.653 244C129.879 244 120.168 242.336 112.764 239.008C105.238 235.68 98.8048 229.738 93.3426 221.3C87.8804 212.861 85.21 202.046 85.21 188.853C85.21 171.263 89.9439 157.715 99.533 148.325C109.122 138.936 122.596 134.182 140.075 134.182C153.791 134.182 164.472 136.916 172.362 142.264C180.131 147.731 185.957 156.051 189.841 167.223L160.224 173.64C159.496 171.145 158.403 168.649 156.947 166.509C155.126 164.014 152.82 162.112 150.028 160.686C147.236 159.26 144.08 158.665 140.924 158.665C133.277 158.665 127.451 161.637 123.445 167.698C120.411 172.095 118.833 179.108 118.833 188.616C118.833 200.382 120.654 208.464 124.295 212.861C127.936 217.259 133.034 219.398 139.711 219.398C146.144 219.398 150.999 217.615 154.276 214.168C157.554 210.484 159.981 205.374 161.438 198.718ZM230.019 135.965H263.52V173.165H300.178V135.965H333.922V242.217H300.178V199.193H263.52V242.217H230.019V135.965Z" fill="white"/>
<path d="M329.31 189.091C329.31 171.739 334.286 158.19 344.118 148.563C353.95 138.936 367.788 134.063 385.388 134.063C403.474 134.063 417.312 138.817 427.144 148.326C436.975 157.834 441.831 171.145 441.831 188.259C441.831 200.739 439.646 210.841 435.398 218.804C431.271 226.648 424.837 233.066 416.947 237.345C408.815 241.742 398.74 244 386.723 244C374.464 244 364.389 242.099 356.378 238.295C348.124 234.254 341.326 227.955 336.835 220.23C331.859 211.911 329.31 201.571 329.31 189.091ZM362.811 189.21C362.811 199.907 364.875 207.632 368.88 212.386C372.886 217.021 378.469 219.398 385.509 219.398C392.671 219.398 398.255 217.14 402.26 212.505C406.266 207.87 408.208 199.669 408.208 187.784C408.208 177.8 406.144 170.432 402.017 165.915C397.89 161.28 392.307 159.022 385.267 159.022C379.076 158.784 373.129 161.399 369.002 166.034C364.875 170.669 362.811 178.395 362.811 189.21ZM476.182 189.091C476.182 171.739 481.159 158.19 490.991 148.563C500.822 138.936 514.66 134.063 532.26 134.063C550.346 134.063 564.305 138.817 574.016 148.326C583.726 157.834 588.703 171.145 588.703 188.259C588.703 200.739 586.518 210.841 582.27 218.804C578.143 226.648 571.71 233.066 563.82 237.345C555.687 241.742 545.612 244 533.596 244C521.336 244 511.261 242.099 503.25 238.295C494.996 234.254 488.199 227.955 483.708 220.23C478.731 211.911 476.182 201.571 476.182 189.091ZM509.683 189.21C509.683 199.907 511.747 207.632 515.752 212.386C519.758 217.021 525.342 219.398 532.382 219.398C539.543 219.398 545.127 217.14 549.133 212.505C553.138 207.87 555.08 199.669 555.08 187.784C555.08 177.8 553.017 170.432 548.89 165.915C544.763 161.28 539.179 159.022 532.139 159.022C525.949 158.784 519.879 161.399 515.874 166.034C511.747 170.669 509.683 178.395 509.683 189.21Z" fill="white"/>
<path d="M585.183 135.965H618.684V216.07H671V242.217H585.062V135.965H585.183Z" fill="white"/>
<path d="M548.257 129.833C581.986 104.946 592.387 62.7578 571.488 35.6037C550.589 8.4495 506.305 6.61182 472.576 31.4991C438.847 56.3864 428.446 98.5743 449.345 125.729C470.244 152.883 514.528 154.72 548.257 129.833Z" fill="black"/>
<mask id="mask0_38_35" style="mask-type:luminance" maskUnits="userSpaceOnUse" x="438" y="13" width="145" height="135">
<path d="M548.257 129.833C581.986 104.946 592.387 62.7578 571.488 35.6037C550.589 8.4495 506.305 6.61182 472.576 31.4991C438.847 56.3864 428.446 98.5743 449.345 125.729C470.244 152.883 514.528 154.72 548.257 129.833Z" fill="white"/>
</mask>
<g mask="url(#mask0_38_35)">
<path d="M363.327 67.1987L537.623 -61.408L658.23 95.2999L483.934 223.907L363.327 67.1987Z" fill="black"/>
<mask id="mask1_38_35" style="mask-type:luminance" maskUnits="userSpaceOnUse" x="363" y="-62" width="296" height="286">
<path d="M363.327 67.1987L537.623 -61.408L658.23 95.2999L483.934 223.907L363.327 67.1987Z" fill="white"/>
</mask>
<g mask="url(#mask1_38_35)">
<path d="M548.257 129.833C581.986 104.946 592.387 62.7578 571.488 35.6037C550.589 8.4495 506.305 6.61182 472.576 31.4991C438.847 56.3864 428.446 98.5743 449.345 125.729C470.244 152.883 514.528 154.72 548.257 129.833Z" fill="black"/>
<mask id="mask2_38_35" style="mask-type:luminance" maskUnits="userSpaceOnUse" x="438" y="13" width="145" height="135">
<path d="M548.257 129.833C581.986 104.946 592.387 62.7578 571.488 35.6037C550.589 8.4495 506.305 6.61182 472.576 31.4991C438.847 56.3864 428.446 98.5743 449.345 125.729C470.244 152.883 514.528 154.72 548.257 129.833Z" fill="white"/>
</mask>
<g mask="url(#mask2_38_35)">
<path d="M411.862 77.6626L533.91 -12.3886L609.662 86.0415L487.615 176.093L411.862 77.6626Z" fill="black"/>
<mask id="mask3_38_35" style="mask-type:luminance" maskUnits="userSpaceOnUse" x="411" y="-13" width="199" height="190">
<path d="M411.862 77.6626L533.91 -12.3886L609.662 86.0415L487.615 176.093L411.862 77.6626Z" fill="white"/>
</mask>
<g mask="url(#mask3_38_35)">
<path d="M548.257 129.833C581.986 104.946 592.387 62.7578 571.488 35.6037C550.589 8.4495 506.305 6.61182 472.576 31.4991C438.847 56.3864 428.447 98.5743 449.345 125.729C470.244 152.883 514.529 154.72 548.257 129.833Z" fill="black" stroke="white" stroke-width="4" stroke-miterlimit="10"/>
</g>
<mask id="mask4_38_35" style="mask-type:luminance" maskUnits="userSpaceOnUse" x="429" y="-8" width="164" height="179">
<path d="M429.254 136.476L471.034 -7.06052L592.374 27.2113L550.594 170.747L429.254 136.476Z" fill="white"/>
</mask>
<g mask="url(#mask4_38_35)">
<path d="M411.862 77.3896L533.638 -12.3884L609.662 86.3149L487.886 176.093L411.862 77.3896Z" stroke="white" stroke-width="4" stroke-miterlimit="10"/>
</g>
<path d="M548.257 129.833C581.986 104.946 592.387 62.7578 571.488 35.6037C550.589 8.4495 506.305 6.61182 472.576 31.4991C438.847 56.3864 428.446 98.5743 449.345 125.729C470.244 152.883 514.528 154.72 548.257 129.833Z" stroke="white" stroke-width="4" stroke-miterlimit="10"/>
<path d="M411.862 77.6626L533.91 -12.3886L609.662 86.0415L487.615 176.093L411.862 77.6626Z" fill="black"/>
<mask id="mask5_38_35" style="mask-type:luminance" maskUnits="userSpaceOnUse" x="411" y="-13" width="199" height="190">
<path d="M411.862 77.6626L533.91 -12.3886L609.662 86.0415L487.615 176.093L411.862 77.6626Z" fill="white"/>
</mask>
<g mask="url(#mask5_38_35)">
<path d="M548.257 129.833C581.986 104.946 592.387 62.7578 571.488 35.6037C550.589 8.4495 506.305 6.61182 472.576 31.4991C438.847 56.3864 428.447 98.5743 449.345 125.729C470.244 152.883 514.529 154.72 548.257 129.833Z" fill="black" stroke="white" stroke-width="4" stroke-miterlimit="10"/>
</g>
<mask id="mask6_38_35" style="mask-type:luminance" maskUnits="userSpaceOnUse" x="429" y="-8" width="164" height="179">
<path d="M429.254 136.476L471.034 -7.06052L592.374 27.2113L550.594 170.747L429.254 136.476Z" fill="white"/>
</mask>
<g mask="url(#mask6_38_35)">
<path d="M411.862 77.3896L533.638 -12.3884L609.662 86.3149L487.886 176.093L411.862 77.3896Z" stroke="white" stroke-width="4" stroke-miterlimit="10"/>
</g>
<path d="M363.327 67.1987L537.623 -61.408L658.23 95.2999L483.934 223.907L363.327 67.1987Z" stroke="white" stroke-width="4" stroke-miterlimit="10"/>
</g>
<path d="M548.257 129.833C581.986 104.946 592.387 62.7578 571.488 35.6037C550.589 8.4495 506.305 6.61182 472.576 31.4991C438.847 56.3864 428.446 98.5743 449.345 125.729C470.244 152.883 514.528 154.72 548.257 129.833Z" stroke="white" stroke-width="4" stroke-miterlimit="10"/>
<path d="M476.303 72.8553L488.441 64.5358L503.371 85.3346C505.92 88.6624 507.863 92.2279 509.319 96.15C510.169 99.1213 509.926 102.33 508.712 105.183C507.134 108.748 504.585 111.719 501.186 113.859C497.181 116.592 493.782 118.137 490.869 118.613C488.077 119.088 485.164 118.613 482.494 117.424C479.58 115.998 477.031 113.978 475.089 111.363L485.528 101.855C486.378 103.162 487.47 104.351 488.684 105.301C489.534 105.896 490.505 106.252 491.597 106.252C492.447 106.252 493.297 105.896 493.904 105.42C495.117 104.707 495.967 103.281 495.846 101.855C495.482 99.8344 494.632 97.8139 493.297 96.2689L476.303 72.8553ZM512.718 86.0477L523.764 77.4905C524.977 78.9167 526.555 79.9863 528.255 80.5806C530.682 81.2937 533.231 80.8183 535.295 79.2732C536.751 78.3224 537.965 77.0151 538.451 75.3512C539.179 73.2119 537.965 70.8349 535.78 70.1218C535.416 70.0029 535.052 69.8841 534.688 69.8841C533.231 69.7652 530.682 70.3595 526.92 71.9045C520.729 74.4004 515.874 75.3512 512.232 74.9946C508.712 74.6381 505.435 72.8553 503.493 69.8841C502.036 67.8636 501.308 65.4866 501.186 63.1096C501.186 60.376 501.915 57.6425 503.493 55.3843C505.799 52.1753 508.591 49.4418 511.989 47.3025C517.088 43.8558 521.579 42.1919 525.463 42.1919C529.347 42.1919 532.989 43.9746 536.387 47.659L525.463 56.0974C523.278 53.3638 519.151 52.7696 516.359 54.9089L515.995 55.2654C514.781 55.9785 513.932 57.0482 513.446 58.3556C513.082 59.3064 513.325 60.376 513.932 61.208C514.417 61.8022 515.145 62.2776 515.995 62.2776C516.966 62.3965 518.666 61.9211 521.093 60.8514C527.162 58.3556 531.775 56.9294 534.931 56.4539C537.601 55.9785 540.393 56.2162 542.942 57.2859C545.248 58.2367 547.19 59.9006 548.526 61.9211C550.225 64.2981 551.196 67.1505 551.317 70.1218C551.439 73.2119 550.589 76.1831 548.89 78.7978C546.705 82.0068 543.913 84.7404 540.636 86.8797C533.96 91.396 528.497 93.2976 524.128 92.5845C519.394 91.8714 515.51 89.4944 512.718 86.0477Z" fill="white"/>
</g>
</g>
</g>
<defs>
<clipPath id="clip0_38_35">
<rect width="671" height="244" fill="white"/>
</clipPath>
</defs>
</svg>
